<svg width="16" height="17" viewBox="0 0 16 17" fill="none" xmlns="http://www.w3.org/2000/svg">
<path d="M15.9999 8.68399C15.9999 8.14019 15.955 7.59345 15.859 7.05847H8.16113V10.139H12.5693C12.3864 11.1326 11.7987 12.0115 10.938 12.57V14.5688H13.5679C15.1123 13.1755 15.9999 11.1179 15.9999 8.68399Z" fill="#4285F4"/>
<path d="M8.1612 16.5C10.3623 16.5 12.2186 15.7916 13.571 14.5688L10.9411 12.57C10.2094 13.0579 9.26475 13.3342 8.1642 13.3342C6.03506 13.3342 4.2298 11.9262 3.58206 10.0332H0.868164V12.0938C2.2536 14.7951 5.07545 16.5 8.1612 16.5Z" fill="#34A853"/>
<path d="M3.57905 10.0331C3.23719 9.0396 3.23719 7.96376 3.57905 6.97023V4.90967H0.868147C-0.289382 7.17011 -0.289382 9.83326 0.868147 12.0937L3.57905 10.0331Z" fill="#FBBC04"/>
<path d="M8.1612 3.66633C9.32473 3.6487 10.4493 4.07786 11.2919 4.86563L13.622 2.58167C12.1466 1.22365 10.1884 0.477023 8.1612 0.500539C5.07545 0.500539 2.2536 2.20542 0.868164 4.90972L3.57906 6.97028C4.2238 5.07433 6.03207 3.66633 8.1612 3.66633Z" fill="#FE2C25"/>
</svg>
