<?xml version="1.0" encoding="UTF-8"?>
<svg version="1.1" viewBox="0 0 1600 1256" width="1280" height="1280" xmlns="http://www.w3.org/2000/svg">
<path transform="translate(647,412)" d="m0 0c3.43 2.75 4.78 6.56 6.44 10.5 0.463 1.08 0.463 1.08 0.935 2.17 2.07 4.86 3.92 9.77 5.67 14.8 1.38 3.69 3.07 7.23 4.73 10.8 1.65 3.72 3.01 7.52 4.34 11.4 0.828 2.37 0.828 2.37 1.89 4.37 1.24 2.51 2.04 5.06 2.88 7.73 1.46 4.45 3.11 8.67 5.06 12.9 2.79 6.27 5.17 12.7 7.39 19.2 0.327 0.948 0.327 0.948 0.66 1.92 0.609 1.78 1.21 3.56 1.8 5.35 1.15 2.75 2.08 3.93 4.21 5.9 0.363 1.99 0.692 4 1 6 0.948 2.37 1.95 4.68 3 7 3.02 6.97 5.69 13.9 8.03 21.2 1.16 3.36 2.54 6.57 4.04 9.79 1.06 2.32 1.99 4.67 2.93 7.04 2.63 6.4 5.3 12.8 8.2 19.1 0.809 1.97 1.3 3.87 1.8 5.94 1.84 5.58 3.94 11 6.44 16.3 2.46 5.29 4.39 10.7 6.31 16.2 1.17 3.25 2.46 6.42 3.82 9.61 2.17 5.07 3.92 10.2 5.54 15.5 0.758 2.54 0.758 2.54 2.89 4.4 0.711 2.03 0.711 2.03 1.38 4.5 1.53 5.33 3.5 10.4 5.62 15.5 0.627 1.56 1.25 3.12 1.88 4.69l0.977 2.44c2.38 5.96 4.77 11.9 7.15 17.9h2c0.254 0.99 0.508 1.98 0.77 3 1.76 6.8 3.52 13.5 6.23 20 0.37 0.91 0.74 1.82 1.12 2.76 2.02 4.93 4.12 9.8 6.38 14.6 2.94 6.39 5.19 13 7.5 19.6 1.58 4.39 3.29 8.7 5.13 13 0.933 2.18 1.85 4.36 2.77 6.54 0.5 1.19 0.5 1.19 1.01 2.41 0.68 1.62 1.36 3.24 2.04 4.87 1.69 4.02 3.41 8.02 5.2 12 1.34 2.99 2.55 5.95 3.54 9.08 0.231 0.719 0.461 1.44 0.699 2.18 0.304 0.963 0.304 0.963 0.613 1.95 1.3 3.91 2.88 7.69 4.44 11.5 0.469 1.16 0.469 1.16 0.947 2.34 0.305 0.744 0.61 1.49 0.924 2.25 0.276 0.677 0.553 1.35 0.838 2.05 0.917 2.12 0.917 2.12 2.85 4.85 2 3.67 2 3.67 2 6 1.65 0.33 3.3 0.66 5 1 0.329-0.779 0.657-1.56 0.996-2.36 2.67-6.29 5.4-12.5 8.24-18.8 5.94-13 11.3-26.3 16.3-39.7 2-5.26 4.35-10.3 6.77-15.4 2.8-5.92 5.08-12 7.31-18.2 1.34-3.61 2.83-7.12 4.36-10.7 0.824-2.1 1.64-4.2 2.44-6.31 3.74-9.78 7.54-19.5 12.1-29 4.13-8.65 7.61-17.5 10.9-26.5 2.48-6.81 5.13-13.4 8.33-19.9 4.47-9.13 7.95-18.6 11.5-28.2 2.09-5.64 4.2-11.1 6.99-16.4 1.4-2.79 2.36-5.71 3.36-8.66 1.66-4.76 3.44-9.37 5.55-13.9 0.993-2.2 1.89-4.43 2.77-6.68 1.91-4.83 4-9.58 6.12-14.3 2.06-4.66 3.97-9.37 5.82-14.1 0.734-1.86 1.47-3.72 2.2-5.58 0.722-1.84 1.43-3.7 2.13-5.55 0.448-1.13 0.896-2.27 1.36-3.44 0.593-1.54 0.593-1.54 1.2-3.1 1.35-2.34 1.35-2.34 3.51-3.18 0.607-0.0528 1.21-0.106 1.84-0.16 1.51 2.27 2.69 4.34 3.84 6.78 1.4 2.68 3.01 5.18 4.66 7.72 2.02 3.11 3.87 6.17 5.5 9.5 0.495 0.66 0.99 1.32 1.5 2 1.46 1.95 2.42 3.83 3.5 6 0.816 1.39 1.65 2.76 2.5 4.12 0.423 0.683 0.846 1.37 1.28 2.07 1.23 1.94 1.23 1.94 3.22 3.8 1.96 3.52 3.43 7.29 5 11h2c0.186 0.959 0.186 0.959 0.375 1.94 0.206 0.681 0.412 1.36 0.625 2.06 0.66 0.33 1.32 0.66 2 1 0.667 2 1.33 4 2 6 0.825 0.804 1.65 1.61 2.5 2.44 2.43 2.5 2.92 3.31 3.5 6.56 0.66 0.33 1.32 0.66 2 1 0.333 1.33 0.667 2.67 1 4 0.66 0.33 1.32 0.66 2 1 0.146 0.748 0.291 1.5 0.441 2.27 0.63 3.09 1.72 4.9 3.5 7.48 0.787 1.17 0.787 1.17 1.59 2.36 1.34 2.01 1.34 2.01 3.47 2.89 0.342 1.67 0.674 3.33 1 5 1.16 1.16 2.33 2.29 3.56 3.38 1.44 1.62 1.44 1.62 1.84 3.43 0.73 2.69 1.97 4.57 3.53 6.88 0.787 1.18 0.787 1.18 1.59 2.39 1.34 2.04 1.34 2.04 3.47 2.93 0.144 0.763 0.289 1.53 0.438 2.31 0.629 3 1.66 4.33 3.56 6.69 0.673 1.33 1.34 2.66 2 4 0.814 1.41 1.65 2.8 2.5 4.19 0.634 1.04 0.634 1.04 1.28 2.11 1.12 1.85 1.12 1.85 3.22 2.71 0.33 0.99 0.66 1.98 1 3 0.648 1.34 1.32 2.67 2 4l3 6h2c0.186 1.18 0.186 1.18 0.375 2.38 0.416 2.77 0.416 2.77 2.62 4.62 0.466 0.953 0.466 0.953 0.942 1.92 1.88 3.68 4.49 6.03 8.06 8.08 3.73 0.847 7.35 0.809 11.2 0.759 1.12 0.00921 2.23 0.0184 3.38 0.0279 3.74 0.0236 7.47 0.00447 11.2-0.0145 2.68 0.00817 5.36 0.0187 8.04 0.0322 5.77 0.0243 11.5 0.0268 17.3 0.0144 8.34-0.0179 16.7-0.00279 25 0.0204 13.5 0.0367 27.1 0.0467 40.6 0.0399 13.1-0.00653 26.3-4.85e-4 39.4 0.0225 1.22 0.00212 1.22 0.00212 2.46 0.00427 4.07 0.00715 8.13 0.0146 12.2 0.0221 33.7 0.0621 67.4 0.0809 101 0.0713-0.0189-1.27-0.0377-2.55-0.0571-3.86-0.0153-1.7-0.03-3.41-0.0444-5.11-0.0136-0.835-0.0272-1.67-0.0413-2.53-0.103-16.4 5.58-30.5 16.9-42.3 10.4-9.89 23.4-11.8 37.3-11.7 1.47-0.00876 2.93-0.0193 4.4-0.0313 3.96-0.0277 7.92-0.0313 11.9-0.0303 4.2-0.00317 8.4-0.0289 12.6-0.052 7.99-0.0405 16-0.0609 24-0.074 8.93-0.0156 17.9-0.0542 26.8-0.0946 18.3-0.0822 36.6-0.131 55-0.161 4.64-0.00767 9.29-0.017 13.9-0.0275 5.26-0.0119 10.5-0.0211 15.8-0.027 1.77-0.00215 3.54-5e-3 5.31-0.00865 13.5-0.0253 26.9 0.361 40.4 1.05v50c-11.4 2.86-22.2 3.15-33.9 3.17-1.47 0.00632-2.94 0.0131-4.41 0.0203-3.15 0.0146-6.29 0.0263-9.44 0.0359-4.98 0.0156-9.95 0.0395-14.9 0.0649-14.1 0.0709-28.3 0.131-42.4 0.182-7.83 0.0283-15.7 0.0637-23.5 0.107-4.95 0.0267-9.89 0.0447-14.8 0.056-3.07 0.00913-6.15 0.0265-9.22 0.0462-1.42 0.00747-2.85 0.0116-4.27 0.012-1.94 0.00108-3.89 0.0155-5.83 0.0306-1.09 0.00423-2.17 0.00846-3.29 0.0128-3 0.266-5.21 0.992-7.93 2.26-0.289 1.22-0.578 2.43-0.875 3.69-0.162 0.684-0.325 1.37-0.492 2.07 0.482 2.94 1.79 4.34 4.09 6.16 5.39 2.55 12 1.74 17.8 1.69 1.6 0.00354 3.19 0.00932 4.79 0.0172 3.43 0.0122 6.87 0.00873 10.3-0.00683 5.43-0.0243 10.9-0.0128 16.3 0.00367 9.57 0.0245 19.1 0.0187 28.7 0.0062 14.4-0.0186 28.8-0.0137 43.2 0.02 5.4 0.0115 10.8 0.00708 16.2-0.01 3.36-0.0079 6.72-0.00364 10.1 0.00371 1.56 8.1e-4 3.11-0.00353 4.67-0.0134 2.13-0.0129 4.25-0.00733 6.38 0.00262 1.78-0.00283 1.78-0.00283 3.6-0.00571 3.27 0.371 3.27 0.371 9.27 3.37v46c-5.55 2.78-7.23 3.38-13 3.4-0.683 0.00665-1.37 0.0133-2.07 0.0201-2.28 0.0186-4.55 0.016-6.83 0.0135-1.64 0.00902-3.27 0.0193-4.91 0.0309-4.43 0.0276-8.87 0.0369-13.3 0.0429-4.64 0.00939-9.27 0.0356-13.9 0.06-8.78 0.0437-17.6 0.0722-26.3 0.0953-9.99 0.0271-20 0.071-30 0.116-20.6 0.0928-41.1 0.165-61.7 0.222-0.534 1.41-1.05 2.83-1.56 4.25-0.29 0.789-0.58 1.58-0.879 2.39-0.634 2.68-0.745 3.87 0.441 6.36 3.76 3.01 6.74 3.38 11.5 3.39 1.31 0.0111 2.62 0.0222 3.97 0.0336 1.44-0.00277 2.89-0.00581 4.33-0.00911 1.53 0.00738 3.05 0.0161 4.58 0.026 4.14 0.0233 8.28 0.0285 12.4 0.0307 4.34 0.00567 8.67 0.0289 13 0.0506 8.22 0.0385 16.4 0.0627 24.7 0.0811 14.7 0.0334 29.4 0.0912 44.1 0.154 5.16 0.0214 10.3 0.0367 15.5 0.0468 3.21 0.00704 6.43 0.0179 9.64 0.0296 1.49 0.00454 2.97 0.0074 4.46 0.00842 2.04 0.00158 4.07 0.00973 6.11 0.0182 1.71 0.00383 1.71 0.00383 3.45 0.00775 6.17 0.245 10.9 1.09 16.3 4.13 0.101 6.35 0.171 12.7 0.22 19.1 0.0201 2.16 0.0474 4.32 0.082 6.49 0.0484 3.11 0.0712 6.21 0.0889 9.32 0.0206 0.969 0.0413 1.94 0.0626 2.94 4.53e-4 1.35 4.53e-4 1.35 9.16e-4 2.73 0.00888 0.793 0.0178 1.59 0.0269 2.4-0.481 2.07-0.481 2.07-1.95 3.67-3.79 2.09-7.27 1.81-11.5 1.78-0.919 0.00539-1.84 0.0108-2.79 0.0163-3.09 0.0143-6.17 0.00716-9.26 5.29e-5 -2.21 0.0057-4.42 0.0127-6.63 0.0208-6.01 0.018-12 0.0168-18 0.0111-5.02-0.00309-10 0.00299-15.1 0.00904-12.5 0.0149-25 0.0112-37.6-8.63e-4 -10.9-0.00992-21.7 0.00299-32.6 0.0269-11.2 0.0244-22.3 0.0336-33.5 0.0273-6.26-0.00337-12.5-9.59e-4 -18.8 0.0163-5.9 0.0155-11.8 0.0115-17.7-0.00731-2.16-0.00368-4.32-5.91e-4 -6.48 0.00989-2.96 0.0132-5.91 0.00163-8.87-0.016-0.847 0.00961-1.69 0.0192-2.57 0.0291-8.74-0.107-16.2-3.31-23.2-8.53-0.536-0.392-1.07-0.784-1.62-1.19-3.45-2.66-4.92-4.77-6.38-8.81-0.99-0.33-1.98-0.66-3-1-0.33-2.64-0.66-5.28-1-8h-2c-2.03-4.33-2.52-8.29-3-13h-1v-24c-3.87 0.00302-7.74 0.00603-11.7 0.00914-35.5 0.0244-71 0.0142-106-0.0339-4.65-0.00627-9.3-0.0122-13.9-0.018-0.926-0.00115-1.85-0.00231-2.8-0.0035-15-0.018-30-0.0113-45 0.00449-15.4 0.0156-30.8 0.00482-46.1-0.0306-9.49-0.021-19-0.0214-28.5 0.00467-6.51 0.0159-13 0.00608-19.5-0.024-3.76-0.0166-7.51-0.0218-11.3 0.00347-4.07 0.0271-8.14 1.69e-4 -12.2-0.0321-1.19 0.0165-2.38 0.033-3.6 0.05-7.81-0.125-7.81-0.125-10.9-2.43-1.54-1.76-2.77-3.5-3.98-5.5-0.407-0.566-0.814-1.13-1.23-1.72-2.77-3.87-2.77-3.87-2.77-6.28h-2c-0.28-0.606-0.559-1.21-0.848-1.84-2.68-5.61-5.74-10.6-9.37-15.6-7.78-11.1-7.78-11.1-7.78-14.5h-2c-0.415-1.02-0.83-2.04-1.26-3.09-1.58-3.67-3.5-7.01-5.62-10.4-0.354-0.57-0.707-1.14-1.07-1.73-1.79-2.86-3.64-5.64-5.68-8.34-2.93-3.92-4.87-8.35-6.95-12.8-1.3-2.44-2.2-4.06-4.43-5.67h-4c-0.315 0.918-0.629 1.84-0.953 2.78-3.92 11.2-3.92 11.2-5.98 15.1-2 3.76-3.47 7.7-4.94 11.7-4.55 12.3-9.52 24.4-14.7 36.5-2.79 6.47-5.5 13-8.11 19.5-1.12 2.78-2.28 5.4-3.84 7.97-1.75 2.95-2.79 5.9-3.89 9.14-1.74 4.99-3.55 9.92-5.55 14.8-0.934 2.29-1.85 4.59-2.77 6.89-2.67 6.68-5.43 13.3-8.19 20-0.518 1.25-1.04 2.5-1.55 3.75-2.34 5.65-4.68 11.3-7.04 16.9-1.77 4.25-3.51 8.51-5.22 12.8-0.462 1.15-0.924 2.3-1.4 3.48-0.946 2.35-1.89 4.71-2.83 7.06-2.34 5.81-4.73 11.3-8.02 16.6-1.95 3.45-3.15 6.45-3.88 10.3-0.694 3.51-1.79 6.12-3.62 9.19-1.77 2.98-2.84 5.4-3.44 8.81-0.915 4.92-3.06 8.87-5.36 13.3-4.39 8.81-7.79 18.1-11.4 27.3-0.316 0.792-0.631 1.58-0.957 2.4-0.324 0.813-0.648 1.63-0.982 2.47-7.81 19.5-16 39-24.3 58.3h-4c-4.71-6.4-7.57-14.6-10.2-22-0.861-2.25-1.86-4.41-2.88-6.59-1.21-2.65-1.91-4.59-2.38-7.5-0.549-3.16-1.8-5.37-3.45-8.09-3.14-5.36-5.46-11.5-6.55-17.6-0.165-0.722-0.33-1.44-0.5-2.19-0.66-0.33-1.32-0.66-2-1-1.67-3.41-2.88-6.18-3.44-9.94-0.63-3.43-1.9-5.86-3.52-8.91-1.44-2.95-2.4-6-3.4-9.12-0.967-3.02-2.14-5.93-3.47-8.81-0.778-1.72-1.48-3.46-2.18-5.21 0.33-0.66 0.66-1.32 1-2-0.66-0.33-1.32-0.66-2-1-0.767-1.93-1.52-3.87-2.22-5.83-0.88-2.44-1.92-4.8-2.96-7.18-2.43-5.86-4.72-11.7-5.82-18h-2c-0.458-1.38-0.917-2.75-1.38-4.12-0.275-0.821-0.549-1.64-0.832-2.49-0.63-1.9-1.25-3.8-1.86-5.7-0.84-2.59-0.84-2.59-1.88-4.56-1.06-2.12-1.06-2.12-2.38-5.75-1.18-3.23-2.6-6.21-4.19-9.25-2.16-4.2-3.61-8.34-4.82-12.9-1.06-3.49-2.65-6.19-4.68-9.23-0.363-2.35-0.503-4.67-0.656-7.04-0.113-0.647-0.227-1.29-0.344-1.96-0.66-0.33-1.32-0.66-2-1-1.07-2.18-1.07-2.18-2.12-4.88-0.353-0.884-0.706-1.77-1.07-2.68-0.805-2.45-0.805-2.45-0.805-5.45h-2c-0.29-0.922-0.29-0.922-0.586-1.86-0.26-0.808-0.521-1.62-0.789-2.45-0.383-1.2-0.383-1.2-0.773-2.43-0.84-2.49-0.84-2.49-2.85-5.26-0.599-2-1.14-4.03-1.62-6.06-0.26-1.06-0.521-2.13-0.789-3.22-0.586-2.71-0.586-2.71-0.586-4.71-0.66-0.33-1.32-0.66-2-1-0.852-1.74-0.852-1.74-1.62-3.88-0.26-0.699-0.521-1.4-0.789-2.12-0.586-2.01-0.586-2.01-0.586-5.01-0.66-0.33-1.32-0.66-2-1-1-2.18-1-2.18-2-4.88-1.14-3.06-2.17-5.38-4-8.12-0.539-2.66-0.734-5.29-1-8h-2c-0.326-0.941-0.652-1.88-0.988-2.85-0.655-1.87-0.655-1.87-1.32-3.77-0.429-1.23-0.859-2.46-1.3-3.73-1.27-3.35-2.73-6.47-4.39-9.65-2.27-5.04-4.17-10.2-6.04-15.4-1.2-3.26-2.59-6.43-3.96-9.62-2.15-5.49-4.25-11-6.33-16.5-0.642-1.69-0.642-1.69-1.3-3.42-0.576-1.53-0.576-1.53-1.16-3.09-1.19-3.04-1.19-3.04-2.82-6.08-1.81-3.77-2.04-6.76-2.39-10.9h-2c-0.588-1.86-0.588-1.86-1.19-3.75-2.35-7.04-5.31-13.8-8.28-20.6-0.464-1.08-0.928-2.15-1.41-3.26-0.431-0.982-0.861-1.96-1.3-2.98-0.271-0.791-0.541-1.58-0.82-2.4 0.33-0.66 0.66-1.32 1-2h-2c-0.254-0.808-0.508-1.62-0.77-2.45-0.344-1.07-0.688-2.14-1.04-3.24-0.336-1.06-0.673-2.11-1.02-3.2-1.12-2.98-2.48-5.43-4.17-8.11-0.698-1.65-1.37-3.32-2-5-3.86 1.29-4.2 2.41-6 6-0.877 2.56-1.68 5.09-2.44 7.69-1.88 6.26-4.05 12.3-6.56 18.3-0.736 1.92-1.45 3.85-2.16 5.78-0.626 1.66-1.27 3.32-1.92 4.98-2.46 6.26-4.7 12.5-6.79 18.9-1.97 6.03-4.1 12-6.44 17.9-4.08 10.3-7.79 20.7-11.5 31.2-2.34 6.56-4.71 13.1-7.07 19.7-1.54 4.27-3.07 8.53-4.57 12.8-2.83 8.09-5.9 16-9.54 23.8-0.308 0.875-0.616 1.75-0.933 2.65-2.45 2.79-3.03 2.74-6.61 2.98-1.99 0.0285-3.97 0.029-5.96 0.00838-1.64 0.0125-1.64 0.0125-3.31 0.0253-3.68 0.022-7.36 0.00829-11-0.00513-2.63 0.00845-5.26 0.0191-7.89 0.0318-5.67 0.0239-11.3 0.0294-17 0.0227-8.2-0.00979-16.4 0.00791-24.6 0.0324-13.3 0.0389-26.6 0.0556-39.9 0.0582-12.9 0.00265-25.9 0.0158-38.8 0.043-1.2 0.00251-1.2 0.00251-2.41 0.00507-4 0.00846-7.99 0.0171-12 0.0259-33.2 0.0725-66.3 0.109-99.5 0.122-0.512 1.24-0.512 1.24-1.04 2.51-0.449 1.08-0.898 2.17-1.36 3.28-0.445 1.08-0.889 2.15-1.35 3.26-4.44 10.4-11.2 19.2-18.3 28-0.558 0.714-1.12 1.43-1.69 2.16-3 3.71-6.25 6.49-10.1 9.25-2.36 1.72-4.57 3.58-6.8 5.46-6.02 4.85-12.6 8.47-19.4 12.1-0.696 0.389-1.39 0.779-2.11 1.18-10.3 5.52-21.9 8.93-33 12.6-0.869 0.294-1.74 0.587-2.63 0.89-14.8 4.76-29.7 4.73-45.1 4.67-1.05-0.00315-2.1-0.0063-3.18-0.00955-27.2-0.12-51.1-3.95-77-12.3-0.823-0.256-1.65-0.512-2.49-0.776-37.5-11.8-70.4-36.5-90.5-70.2-0.33-0.33-0.66-0.66-1-1-0.121-2.18-0.17-4.37-0.193-6.55-0.00818-0.685-0.0164-1.37-0.0248-2.07-0.0249-2.28-0.0414-4.55-0.0558-6.83-0.00532-0.776-0.0106-1.55-0.0161-2.35-0.0268-4.11-0.0461-8.22-0.0605-12.3-0.0166-4.25-0.0614-8.49-0.112-12.7-0.0337-3.26-0.0452-6.53-0.0509-9.79-0.00672-1.56-0.0219-3.13-0.0459-4.69-0.0316-2.19-0.0317-4.38-0.0243-6.58-0.00809-1.25-0.0162-2.49-0.0245-3.78 0.774-4.19 2.43-5.56 5.61-8.29 1.42-1.88 2.81-3.77 4.19-5.69 29.4-39.1 78.8-59.2 126-66.9 8.47-1.19 17-1.68 25.6-2.18 2.24-0.217 4.25-0.664 6.42-1.23 1.81-0.0917 3.62-0.13 5.44-0.125 0.927-0.00258 1.85-0.00516 2.81-0.00781 2.75 0.133 2.75 0.133 5.05 0.614 2.91 0.558 5.72 0.777 8.67 0.948 1.15 0.0735 2.3 0.147 3.48 0.223 2.38 0.147 4.76 0.287 7.14 0.422 22.7 1.49 46 10.2 65.4 21.9 1.09 0.657 2.19 1.31 3.31 1.99 18 11.4 18 11.4 21.5 20 1.02 2.14 1.02 2.14 3.12 2.94 2.77 1.43 3.53 3.42 5.06 6.06h2c0.0825 0.722 0.165 1.44 0.25 2.19 0.553 2.88 0.553 2.88 2.5 4.89 2.99 3.9 4.89 8.1 6.93 12.6l1.22 2.6c1.51 3.24 2.96 6.38 4.09 9.77 29 0.07 58 0.123 87.1 0.155 2.68 0.00306 5.36 0.00618 8.04 0.00936 0.666 7.87e-4 1.33 0.00157 2.02 0.00238 10.8 0.0131 21.6 0.0367 32.4 0.0643 11.1 0.028 22.1 0.0445 33.2 0.0508 6.22 0.00392 12.4 0.0132 18.7 0.0349 5.85 0.0203 11.7 0.0267 17.5 0.0221 2.15 8.28e-4 4.3 0.00683 6.45 0.0183 2.93 0.0148 5.86 0.0114 8.79 0.00315 0.859 0.00874 1.72 0.0175 2.6 0.0265 4.22 0.1 4.22 0.1 7.89-1.68 2.24-2.87 2.86-6.37 3.77-9.83 1.51-5.46 3.13-10.6 5.59-15.7 1.21-2.73 2.11-5.52 3.03-8.37 1.35-4.17 2.98-7.89 4.94-11.8 0.801-2.5 1.53-5.03 2.25-7.55 1-3.26 2.39-6.32 3.75-9.45 0.476-1.38 0.937-2.76 1.39-4.15 1.54-4.68 3.21-9.3 4.93-13.9 0.303-0.821 0.607-1.64 0.919-2.49 1.95-5.26 3.92-10.5 5.89-15.8 2.71-7.2 5.31-14.4 7.88-21.7 0.812-2.27 1.62-4.54 2.44-6.81 1.89-5.29 3.76-10.6 5.62-15.9 3.44-9.77 7-19.5 10.6-29.2 1.71-4.55 3.36-9.11 4.98-13.7 1.62-4.57 3.36-9 5.31-13.4 1.8-4.63 3.44-9.28 5-14 4.01-12.1 4.01-12.1 6.47-16.8 1.56-3.25 2.54-6.33 3.47-9.81 2.93-10.6 6.41-20.6 11.1-30.5 2.47-5.37 4.38-10.8 6.17-16.5 0.832-2.41 0.832-2.41 1.83-3.41z" fill="#FBFBFB"/>
<path transform="translate(682,238)" d="m0 0c1.05 0.375 2.1 0.75 3.18 1.14 12.7 4.59 24.8 10.8 36.8 16.9v2c0.688 0.248 1.38 0.495 2.09 0.75 3.38 1.45 6.43 3.29 9.54 5.25 0.572 0.356 1.14 0.712 1.73 1.08 2.57 1.6 5.12 3.24 7.64 4.92v2c0.577 0.0825 1.15 0.165 1.75 0.25 2.89 0.964 4.1 2.6 6.25 4.75 1.15 0.674 2.32 1.32 3.5 1.94 3.36 1.81 5.19 4.01 7.5 7.06 0.99 0.33 1.98 0.66 3 1 0.835 1.11 0.835 1.11 1.69 2.25 2.12 2.52 3.37 3.49 6.12 5.06 4 2.35 6.59 5.2 9.52 8.77 1.56 1.79 3.12 3.21 4.98 4.67 2.6 2.18 3.31 3.3 4.69 6.25 1.64 1.69 3.31 3.35 5 5 1.7 1.97 3.35 3.99 5 6 1.43 1.43 2.89 2.82 4.38 4.19 2.36 2.52 3.8 4.88 5.46 7.87 2.05 3.43 4.53 6.53 6.97 9.69 4.31 5.61 8.17 11.2 11.6 17.4 1.48 2.09 1.48 2.09 4.12 2.33 2.51-0.263 2.51-0.263 3.95-1.91 0.379-0.623 0.758-1.25 1.15-1.89 1.22-1.96 2.3-3.61 3.95-5.25 1.64-1.49 1.64-1.49 2.68-4.19 1.93-3.59 4.15-5.81 7.13-8.54 1.7-1.8 2.58-3.48 3.62-5.71l3-3c1.18-2.1 1.18-2.1 2-4h2c0.213-0.541 0.425-1.08 0.645-1.64 1.85-3.21 4.4-5.56 7.04-8.11 3.44-3.36 6.82-6.71 9.94-10.4 5.93-6.94 12.5-13.3 19.5-19.2 1.28-1.1 2.55-2.21 3.8-3.34 5.41-4.87 11.2-9.08 17.1-13.3 1.92-1.39 3.83-2.79 5.75-4.19 0.914-0.661 1.83-1.32 2.77-2 1.45-1.05 2.89-2.12 4.3-3.21 4.31-3.26 8.94-5.57 13.8-7.92 3.06-1.52 6.07-3.11 9.07-4.75 5.5-3 11-5.81 16.9-7.95 2.13-0.86 4.1-1.82 6.14-2.88 12.8-6.46 26.7-10 40.7-12.6 1.89-0.374 3.77-0.794 5.64-1.24 8.57-2.01 16.9-2.92 25.6-3.35 2.16-0.106 4.33-0.229 6.49-0.355 14.8-0.823 29.3-0.793 44 0.748 1.87 0.177 1.87 0.177 3.79 0.357 7.17 0.727 14 1.89 21 3.61 3.46 0.839 6.93 1.51 10.4 2.16 14 2.62 27.1 6.87 40.4 12 2.9 1.11 5.81 2.16 8.75 3.17 14.4 5 28.2 11.4 40.6 20.2 2.82 1.96 5.8 3.59 8.8 5.25v2c0.681 0.227 1.36 0.454 2.06 0.688 6 2.68 10.3 6.7 14.9 11.3 1.32 0.697 2.65 1.37 4 2 1.01 0.988 2.01 1.99 3 3 1.35 1.2 2.7 2.38 4.06 3.56 3.17 2.75 6.02 5.51 8.69 8.75 2 2.37 4 4.4 6.44 6.31 2.74 2.32 4.25 4.17 5.81 7.38v2h2c1.63 1.88 3.14 3.76 4.62 5.75 0.444 0.586 0.889 1.17 1.35 1.78 4.25 5.67 8.17 11.5 12 17.5 1.04 1.54 2.08 3.08 3.12 4.62 8.4 12.7 15.6 26.1 20.9 40.4 0.251 0.67 0.503 1.34 0.762 2.03 0.492 1.31 0.98 2.62 1.46 3.94 0.535 1.4 1.09 2.8 1.67 4.19 4.99 12 8.32 24.3 11.4 36.9 0.258 1.07 0.517 2.14 0.783 3.24 1.01 4.28 2 8.51 2.58 12.9 0.0879 2.71 0.0879 2.71 1.39 3.82 1.5 9.83 1.32 20 1.52 29.9 0.0342 1.25 0.0683 2.49 0.104 3.78 0.0251 1.12 0.0501 2.25 0.0759 3.41 0.298 2.89 0.956 4.43 2.3 6.94 0.259 1.97 0.259 1.97 0.266 4 0.00258 0.741 0.00516 1.48 0.00781 2.24-0.00773 0.764-0.0155 1.53-0.0234 2.31 0.00773 0.768 0.0155 1.54 0.0234 2.33-0.0135 3.88-0.0736 5.81-2.27 9.11-0.354 2.94-0.354 2.94-0.379 6.29-0.0499 1.89-0.0499 1.89-0.101 3.82-0.0133 0.665-0.0267 1.33-0.0404 2.01-0.0426 2.07-0.0984 4.14-0.158 6.21-0.0782 2.7-0.153 5.4-0.226 8.1-0.382 14.2-2.22 27.7-5.1 41.6-0.222 1.12-0.222 1.12-0.449 2.27-2.29 11.3-6.75 21.1-16.6 27.7-8.97 3.25-18.3 6.03-27.5 2.44-8.7-4.27-15.6-11.6-19.9-20.2-0.625-2.19-0.625-2.19-0.625-5.19-0.66-0.33-1.32-0.66-2-1 0.33-0.66 0.66-1.32 1-2h-2c0.379-4.78 0.793-9.46 1.94-14.1 1.18-4.93 1.72-9.91 2.31-14.9 0.443-3.72 0.991-7.35 1.81-11 1.2-5.49 1.41-11 1.69-16.6 0.246-3.32 0.246-3.32 0.747-5.28 0.854-3.48 0.784-7.06 0.886-10.6 0.0255-0.831 0.051-1.66 0.0773-2.52 0.0519-1.75 0.101-3.5 0.148-5.26 0.0748-2.68 0.165-5.37 0.257-8.05 0.0485-1.7 0.0961-3.41 0.143-5.11 0.0436-1.2 0.0436-1.2 0.0881-2.43 0.0885-3.91 0.123-5.7-2.1-9.03-1.31-7.89-1.13-16-1-24h-2c-0.0752-0.569-0.15-1.14-0.228-1.72-0.351-2.61-0.718-5.23-1.08-7.84-0.118-0.895-0.236-1.79-0.357-2.71-0.775-5.42-2.02-9.77-4.33-14.7-0.625-2.34-0.625-2.34-1-4.38-1.98-9.64-5.71-18.4-10.5-27-1.8-3.27-3.53-6.59-5.22-9.92-0.593-1.16-1.19-2.32-1.8-3.52-1.27-2.82-2.02-5.19-2.45-8.23h-2c-4-6.75-4-6.75-4-9h-2c-0.268-0.598-0.536-1.2-0.812-1.81-1.05-2.18-1.05-2.18-2.55-3.55-1.86-1.86-3.36-3.85-4.95-5.95-12.2-15.3-26.9-27.6-43.7-37.5-1.69-1.01-3.34-2.08-4.98-3.17v-2c-1.01-0.249-2.03-0.498-3.07-0.754-3.96-1.13-7.31-3.04-10.8-5.18-5.26-3.12-10.2-5.41-16.1-7.06-2-0.659-4-1.33-6-2-1.02-0.34-2.05-0.681-3.1-1.03-1.73-0.577-3.45-1.16-5.17-1.75-10.4-3.55-20.8-6.42-31.7-8.27-4.97-0.857-4.97-0.857-6.07-1.95-29.1-4.94-63.5-4.08-91.3 6.6-3.54 1.35-6.81 2.13-10.5 2.78-2.73 0.785-4.76 2.13-7.18 3.62-2.58 1.33-5.2 2.6-7.81 3.88-5.6 2.77-11 5.62-16.2 9.12-0.654 0.424-1.31 0.848-1.98 1.29-4.7 3.07-9.31 6.29-13.9 9.53-0.54 0.378-1.08 0.756-1.64 1.15-10.2 7.24-19.2 15.4-27.9 24.3-1.7 1.71-3.4 3.42-5.11 5.13-1.09 1.09-2.17 2.18-3.26 3.28-0.507 0.508-1.01 1.02-1.54 1.54-2.65 2.66-2.65 2.66-4.64 5.81h-2c-0.206 0.66-0.413 1.32-0.625 2-1.87 4.07-4.35 7.69-7.38 11h-2c-0.229 0.69-0.459 1.38-0.695 2.09-1.59 3.55-3.81 6.41-6.18 9.47-15.5 20.6-27.5 44.2-38.3 67.6-1.93 4.16-4.02 8.24-6.09 12.3-1.27 2.52-2.54 5.05-3.79 7.58-3.46 6.98-6.98 13.9-10.8 20.7-1.13 2.06-2.19 4.13-3.23 6.23-3.92-1.26-5.25-3.67-7.13-7.2-1.08-2.22-1.98-4.49-2.87-6.8-0.983-2.01-1.98-4.01-3-6l-3-6c-0.321-0.619-0.642-1.24-0.973-1.88-1.76-3.43-3.34-6.82-4.65-10.4-1.22-3.7-1.22-3.7-3.38-6.69-0.595-1.59-1.15-3.2-1.69-4.81-2.12-6.04-4.94-11.6-7.92-17.2-1.39-2.97-1.39-2.97-1.39-5.97h-2c-1.18-2.25-2.34-4.5-3.5-6.75-0.334-0.634-0.668-1.27-1.01-1.92-1.76-3.45-2.49-5.38-2.49-9.33h-2c-0.242-0.519-0.485-1.04-0.734-1.57-1.63-3.39-3.16-6.29-5.52-9.24-1.75-2.19-1.75-2.19-1.75-5.19-0.99-0.33-1.98-0.66-3-1-1.19-3.56-1.19-3.56-2-7h-2c-1.46-2.1-2.8-4.19-4.12-6.38-5.75-9.19-12.4-17.3-19.7-25.3-1.85-2.04-3.62-4.12-5.39-6.23-5.1-5.86-11-10.9-16.8-16.1-0.806-0.732-1.61-1.46-2.44-2.22-3.38-3.03-6.65-5.46-10.6-7.78v-2c-1.02-0.34-1.02-0.34-2.06-0.688-3.12-1.39-5.56-3.12-8.29-5.14-1.8-1.28-3.63-2.29-5.65-3.18v-2c-0.829-0.24-1.66-0.48-2.51-0.727-4.07-1.48-7.58-3.47-11.3-5.65-8.51-4.87-16.8-8.6-26.1-11.6-2.88-0.951-5.7-1.99-8.54-3.07-16.5-6.01-33.7-7.36-51.2-7.31-1.11 3.17e-4 -1.11 3.17e-4 -2.25 6.41e-4 -10.9 0.0305-21.6 0.667-32.4 2.06-1.77 0.223-1.77 0.223-3.57 0.45-8.49 1.24-16.1 3.8-24.1 6.86-1.66 0.572-3.33 1.14-5 1.69-0.703 0.233-1.41 0.467-2.13 0.707-1.6 0.516-3.2 1-4.81 1.48-4.54 1.67-8.76 3.92-13.1 6.12-1.33 0.669-2.67 1.34-4 2l-1.95 0.977c-1.46 0.728-2.92 1.45-4.38 2.17-5.42 2.68-10.7 5.47-16 8.41-1.59 0.869-3.18 1.72-4.8 2.52-7.47 3.78-13.7 9.26-20.1 14.5-2.14 1.74-4.33 3.41-6.52 5.08-7.37 5.74-14 11.3-18.9 19.3-1.76 2.71-3.96 4.79-6.3 7-1.08 1.39-1.08 1.39-2.19 2.81-0.598 0.722-1.2 1.44-1.81 2.19h-2c-0.24 0.509-0.48 1.02-0.727 1.54-1.73 3.35-3.69 6.55-5.65 9.77-2.31 3.81-4.6 7.62-6.79 11.5-1.84 3.2-1.84 3.2-3.84 6.01-2.09 3.33-3.48 6.58-4.88 10.2-2.23 5.85-4.53 11.7-7.09 17.4-5.49 12.5-8.3 25-10.5 38.5-0.304 1.68-0.63 3.36-1.06 5.02-1.66 6.54-1.81 12.8-1.8 19.6-0.00643 1.77-0.00643 1.77-0.013 3.57-0.00572 2.49-0.00626 4.97-0.00191 7.46 0.00316 3.77-0.0203 7.54-0.0457 11.3-0.00227 2.43-0.00298 4.85-0.00195 7.28-0.00921 1.11-0.0184 2.23-0.0279 3.37 0.0385 6.62 0.903 12.4 2.66 18.8 0.949 3.53 1.45 6.95 1.9 10.6 0.0845 0.68 0.169 1.36 0.256 2.06 0.174 1.42 0.345 2.84 0.511 4.26 0.251 2.12 0.519 4.24 0.789 6.36 3.45 28.1 3.45 28.1-4.72 38.5-6.31 6.89-14.1 10.3-23.3 11.1-9.96 0.222-17.2-3.88-24.7-10.2-4.16-4.13-7.22-7.77-7.75-13.8 0.00516-0.696 0.0103-1.39 0.0156-2.11-0.13-2.28-0.13-2.28-1.68-4.41-1.99-3.45-2.54-6.86-3.14-10.7-0.817-5.35-0.817-5.35-2.5-10.5-1.33-3.57-1.33-7.13-1.44-10.9-0.125-4.17-0.285-7.89-1.47-11.9-3.05-11-2.19-22.9-2.16-34.2 0.00535-2.85 3.43e-5 -5.71-0.00635-8.56-0.0137-27.5-0.0137-27.5 3.14-34.9 0.349-2.45 0.634-4.91 0.875-7.38 0.822-7.31 2.39-14.2 4.45-21.2 0.826-2.89 1.61-5.8 2.39-8.7 0.617-2.27 1.23-4.53 1.85-6.8 0.293-1.09 0.586-2.18 0.887-3.31 0.286-1.04 0.572-2.07 0.866-3.14 0.252-0.926 0.504-1.85 0.764-2.81 0.987-2.82 2.34-5.1 3.92-7.62 0.556-1.65 1.06-3.32 1.5-5 1.08-3.79 2.41-6.65 4.5-10 0.645-1.58 1.27-3.16 1.88-4.75 1.96-5.03 4.43-9.58 7.12-14.2 0.356-0.672 0.712-1.34 1.08-2.04 3.76-7.07 8.28-13.6 12.8-20.3 1.47-2.18 2.9-4.39 4.34-6.59 2.6-3.92 5.46-7.6 8.39-11.3 1.47-1.8 1.47-1.8 2.42-3.85h2c0.203-0.689 0.406-1.38 0.615-2.09 1.86-3.91 4.5-6.47 7.55-9.51 0.617-0.624 1.23-1.25 1.87-1.89 2-2.01 4.01-4.02 6.03-6.01 0.683-0.68 1.37-1.36 2.07-2.06 9.18-9.13 18.4-17.9 29.1-25.2 1.79-1.24 3.53-2.53 5.27-3.84 8.99-6.75 18.6-12.1 28.5-17.4 0.856-0.461 1.71-0.922 2.59-1.4 16.4-8.82 32.6-16.3 50.3-21.9 1.9-0.601 3.79-1.22 5.68-1.85 6.19-2 12.2-3.42 18.6-4.22 2.84-0.474 2.84-0.474 5.45-2.05 4.48-2.09 8.8-2.58 13.7-3.17 0.988-0.125 1.98-0.25 2.99-0.378 41.2-5.05 84.7-3.4 124 12zm592 183 1 2zm15 72v31h1v-31h-1zm-975 35 1 2zm4 36 1 2z" fill="#FCFCFC"/>
<path transform="translate(1174,835)" d="m0 0c0.949 0.681 1.9 1.36 2.88 2.06 2.13 1.95 3.05 3.29 4.12 5.94 0.313 0.623 0.626 1.25 0.949 1.89 4.16 8.38 5.53 16.8 4.05 26.1-2.11 4.78-4.9 8.81-8 13-0.878 1.31-0.878 1.31-1.77 2.64-4.75 7.08-10.2 13.6-15.7 20.1-2.23 2.64-4.32 5.33-6.34 8.13-2.17 2.94-4.47 5.43-7.12 7.94-3.03 2.93-5.17 5.81-7.31 9.44-3.15 5.2-6.86 9.09-11.2 13.3-4.97 4.81-9.25 10.1-13.5 15.5-1.8 2.24-3.62 4.47-5.44 6.69-0.824 1.01-1.65 2.03-2.5 3.07-0.682 0.739-1.36 1.48-2.07 2.24h-2c-0.245 0.575-0.49 1.15-0.742 1.74-1.47 2.64-3.19 4.31-5.38 6.38-3.98 3.89-7.44 7.97-10.9 12.4-3.48 4.35-7.25 8.42-11 12.5-0.986 1.08-1.97 2.16-2.96 3.24-4.32 4.71-8.61 9.4-13.2 13.8-4.07 3.98-7.32 8.49-10.6 13.1-2.21 2.87-4.57 5.33-7.18 7.83-4.77 4.65-4.77 4.65-9.12 9.69-2.06 2.54-4.3 4.3-6.88 6.31-9.29 9.04-18.1 18.7-26.5 28.5-5.78 6.75-11.8 13.2-17.9 19.7-2.26 2.39-4.49 4.79-6.7 7.23-0.481 0.532-0.961 1.06-1.46 1.61-1.26 1.4-2.52 2.81-3.77 4.21-2.02 2.08-4 3.93-6.19 5.81-5.38 4.64-10.4 9.68-15.4 14.7-1.66 1.66-3.32 3.32-4.99 4.98-5.15 5.15-10.2 10.3-14.8 15.9-0.638 0.648-0.638 0.648-1.29 1.31h-2c-0.267 0.607-0.534 1.21-0.809 1.84-1.53 2.78-3.76 4.32-6.18 6.31-2.18 2.01-3.87 4.14-5.68 6.49-6.83 8.46-14.7 15.9-22.4 23.5-2.29 2.27-4.59 4.54-6.88 6.81-1.41 1.4-2.83 2.8-4.25 4.2-3.89 3.85-7.56 7.82-11.1 12-2.23 2.54-4.58 4.94-6.97 7.34-0.703 0.705-0.703 0.705-1.42 1.42-0.976 0.977-1.95 1.95-2.93 2.93-1.49 1.49-2.98 2.98-4.46 4.47-0.957 0.957-1.92 1.91-2.87 2.87-0.856 0.855-1.71 1.71-2.59 2.59-4.3 4.06-4.3 4.06-6.36 5.23-4.08-0.369-6.03-1.54-8.89-4.41-1.1-1.1-1.1-1.1-2.23-2.22-0.792-0.808-1.58-1.62-2.4-2.45-0.846-0.847-1.69-1.69-2.56-2.57-2.32-2.32-4.63-4.66-6.93-6.99-2.42-2.45-4.85-4.89-7.28-7.33-4.61-4.63-9.21-9.26-13.8-13.9-6.72-6.79-13.5-13.6-20.2-20.3-0.496-0.499-0.993-0.998-1.5-1.51-0.991-0.996-1.98-1.99-2.97-2.99-3.35-3.37-6.69-6.74-10-10.1-1.76-1.78-3.53-3.55-5.29-5.33-1.18-1.19-1.18-1.19-2.38-2.41-4.15-4.18-8.39-8.18-12.9-12-5.41-4.66-10.2-9.94-14.8-15.4-2.82-3.15-5.85-6.08-8.86-9.05-2-2.03-2-2.03-4.12-4.72-1.65-2.03-3.18-3.47-5.19-5.12-3.26-2.72-5.93-5.69-8.67-8.92-2.4-2.7-4.94-5.24-7.52-7.77-3.12-3.07-6.16-6.17-9-9.5-4.52-5.3-9.54-10.1-14.5-15-3.23-3.2-6.31-6.32-9-10v-2c-0.562-0.237-1.12-0.474-1.7-0.719-2.82-1.57-4.78-3.5-7.05-5.78-1.2-1.19-1.2-1.19-2.42-2.41-1.83-2.09-1.83-2.09-1.83-4.09-1.32-0.66-2.64-1.32-4-2v-2c-0.571-0.233-1.14-0.467-1.73-0.707-2.81-1.6-4.47-3.53-6.58-5.98-2.69-3.07-5.39-6.08-8.31-8.94-2.9-2.86-5.57-5.86-8.23-8.94-3.39-3.84-6.89-7.56-10.4-11.3-2.83-3.04-5.63-6.1-8.32-9.26-2.93-3.41-6.11-6.54-9.31-9.69-4.63-4.56-8.79-9.31-12.8-14.4-3.41-4.16-7.07-8.08-10.7-12-2.64-2.86-5.21-5.78-7.76-8.73-2.19-2.49-4.43-4.92-6.68-7.36-4.18-4.58-8.14-9.3-12-14.1-1.86-2.28-3.76-4.49-5.71-6.68-2.97-3.36-5.71-6.85-8.44-10.4-2.19-2.79-4.46-5.5-6.75-8.22-7.85-9.38-15.1-19-22.1-29.1-0.548-0.797-1.1-1.59-1.66-2.41-6.17-9.08-10.3-15.5-9.47-26.7 2.27-11.2 8.75-18.9 17.9-25.3 5.17-2.89 10.4-3.08 16.2-3.18 0.756-0.0186 1.51-0.0372 2.29-0.0564 6.7 0.0751 11.7 2.19 16.9 6.35 16.6 17.4 16.6 17.4 18.3 24.5 0.217 0.835 0.217 0.835 0.438 1.69 1.48 0.495 1.48 0.495 3 1 1.5 1.67 1.5 1.67 3 3.75 0.526 0.726 1.05 1.45 1.59 2.2 1.03 1.5 1.99 3.04 2.91 4.61 2.91 4.72 6.68 8.69 10.7 12.5 3.91 3.83 7.14 8.11 10.5 12.4 3.75 4.84 7.76 9.35 12 13.8 3.35 3.53 3.35 3.53 3.35 5.73 0.598 0.262 1.2 0.523 1.81 0.793 2.33 1.29 3.5 2.47 5.19 4.52 3.24 3.83 6.59 7.52 10 11.2 3.23 3.48 6.45 6.97 9.56 10.6 7.12 8.2 14.5 16.1 22.2 23.7 3.32 3.3 6.47 6.67 9.5 10.2 2.03 2.37 4.12 4.68 6.21 6.99 2.72 3.01 5.41 6.05 8.06 9.12 2.93 3.37 6.04 6.52 9.25 9.62 1.85 1.91 3.58 3.85 5.3 5.87 3.88 4.45 8 8.61 12.2 12.8 0.773 0.769 1.55 1.54 2.34 2.33 2.45 2.43 4.9 4.87 7.35 7.3 3.23 3.21 6.46 6.41 9.69 9.62 1.09 1.08 1.09 1.08 2.21 2.19 3.97 3.95 7.73 8.01 11.4 12.3 2.85 3.22 5.9 6.21 8.97 9.22 1.36 1.35 2.73 2.7 4.09 4.05 2.11 2.09 4.23 4.18 6.35 6.26 2.07 2.04 4.13 4.08 6.19 6.13 0.625 0.612 1.25 1.22 1.89 1.85 2.91 2.89 5.53 5.75 7.9 9.1 4.54 6.22 10.2 11.5 15.7 16.9 1.2 1.2 2.4 2.39 3.59 3.59 2.49 2.49 4.99 4.98 7.49 7.47 3.21 3.19 6.41 6.39 9.61 9.59 2.47 2.46 4.93 4.93 7.4 7.39 1.18 1.18 2.36 2.36 3.55 3.54 1.64 1.64 3.29 3.28 4.94 4.92 0.488 0.489 0.977 0.978 1.48 1.48 2.56 2.55 2.56 2.55 5.61 4.46v2h2c1.62 2 1.62 2 3 4 7.36-2.07 12.4-8.1 16.9-13.9 5.1-6.3 10.7-12 16.5-17.7 1.88-1.86 3.76-3.72 5.63-5.58 4.65-4.62 9.31-9.24 14-13.8 3.95-3.91 7.91-7.83 11.8-11.8 1.83-1.82 3.66-3.63 5.5-5.43 5.95-5.9 11.5-11.9 16.7-18.5 2.47-3.04 5.2-5.72 8-8.45 3.78-3.76 7.21-7.85 10.6-12 0.532-0.641 1.06-1.28 1.61-1.94 0.706-0.866 0.706-0.866 1.43-1.75 1.26-1.25 1.26-1.25 3.26-1.25 0.269-0.593 0.538-1.19 0.814-1.8 1.19-2.21 2.39-3.67 4.15-5.44 0.857-0.86 0.857-0.86 1.73-1.74 0.594-0.587 1.19-1.17 1.8-1.78 0.594-0.602 1.19-1.2 1.8-1.82 0.857-0.853 0.857-0.853 1.73-1.72 0.521-0.519 1.04-1.04 1.58-1.57 1.39-1.13 1.39-1.13 3.39-1.13 0.262-0.579 0.523-1.16 0.793-1.75 1.28-2.38 2.72-4.17 4.52-6.18 0.574-0.648 1.15-1.3 1.74-1.96 2.26-2.43 4.6-4.75 6.95-7.1 2.44-2.52 4.85-5.07 7.25-7.62 0.667-0.708 1.33-1.42 2.02-2.15 3.66-3.92 7.16-7.89 10.5-12.1 3.79-4.77 8.07-8.65 12.6-12.7 3.2-3 5.79-6.27 8.45-9.75 3.08-3.85 6.44-7.42 9.81-11 2.72-2.91 5.39-5.84 7.98-8.87 3.45-4 7.21-7.66 11-11.4 2.67-2.7 5.17-5.5 7.63-8.38 2.06-2.39 4.16-4.72 6.28-7.06 2.65-2.94 5.28-5.89 7.88-8.88 2.51-2.88 5.08-5.7 7.68-8.5 4.25-4.58 8.3-9.22 12.1-14.2 2.39-3.07 4.91-6.02 7.44-8.98 3.43-4.02 6.74-8.09 9.86-12.4 2.47-3.25 5.14-6.33 7.77-9.44 2.76-3.29 5.29-6.67 7.75-10.2 5.82-8.14 13.1-17.3 23.1-20 10.4-1.09 20.6-1.34 28.9 5.55z" fill="#FAFAFA"/>
<path transform="translate(935,1)" d="m0 0c3.16 0.208 6.05 0.847 9 2 1.88 2.56 1.88 2.56 3 6 0.24 0.651 0.48 1.3 0.727 1.97 0.835 2.32 1.56 4.66 2.27 7.03 0.259 0.851 0.518 1.7 0.785 2.58 2.03 7.3 2.89 14.6 3.57 22.1 0.283 4.3 0.283 4.3 1.65 8.32 0.284 2.68 0.52 5.35 0.719 8.04 0.0942 1.19 0.0942 1.19 0.19 2.41 0.269 3.4 0.529 6.81 0.789 10.2 0.191 2.48 0.387 4.96 0.583 7.44 0.0573 0.776 0.115 1.55 0.174 2.35-0.017 3.58-0.017 3.58 1.55 6.55 0.103 1.44 0.139 2.88 0.145 4.32 0.00638 0.918 0.0128 1.84 0.0193 2.78 0.00167 1.5 0.00167 1.5 0.00337 3.03 0.00333 1.03 0.00666 2.05 0.0101 3.11 0.00508 2.18 0.00741 4.35 0.00725 6.53 0.00217 3.32 0.0203 6.64 0.0393 9.96 0.00294 2.11 0.00492 4.23 0.00586 6.34 0.00719 0.989 0.0144 1.98 0.0218 3-0.0178 5.41-0.545 9.81-2.25 14.9-0.339 3.28-0.498 6.53-0.656 9.82-0.357 3.31-1.27 6.04-2.34 9.18-0.156 1.54-0.262 3.08-0.312 4.62-0.754 8.8-5.08 16.7-9.46 24.2-0.793 1.37-1.55 2.77-2.27 4.19-7.69 15.1-20.4 28.2-34 37.9-0.73 0.535-1.46 1.07-2.21 1.62-4.66 3.28-9.25 5.53-14.6 7.51-2.34 0.845-2.34 0.845-4.77 2.5-3.03 1.71-5.92 2.17-9.31 2.84-2.28 0.461-2.28 0.461-4.62 2.03-3.05 1.83-5.85 2.35-9.31 3.04-2.34 0.452-2.34 0.452-5.12 1.46-3.47 1.13-6.91 1.79-10.5 2.44-2.64 0.524-2.64 0.524-5.38 1.55-9.1 2.88-19.4 3.19-28.9 3.38-1.27 0.0284-2.55 0.0567-3.86 0.0859-3.97-0.54-5.58-1.66-8.39-4.46-1.75-3.49-1.18-7.47-1.19-11.3-0.0122-0.855-0.0245-1.71-0.0371-2.59-0.0108-4.63 0.403-7.81 2.22-12.1 0.637-3.44 1.06-6.91 1.5-10.4 0.773-6.06 1.7-11.8 3.5-17.6 0.331-1.33 0.653-2.67 0.965-4.01 0.16-0.677 0.321-1.35 0.486-2.05 0.326-1.38 0.646-2.77 0.961-4.16 0.988-4.12 2.32-7.23 4.59-10.8 1-2.33 2-4.66 3-7 1.28-2.57 2.63-5.1 4-7.62 0.343-0.642 0.686-1.28 1.04-1.95 1.9-3.54 3.87-7 5.96-10.4 0.454-0.825 0.908-1.65 1.38-2.5 3.31-5.09 8.05-8.79 12.7-12.7 2.07-1.85 2.07-1.85 3.89-4.35 2.21-2.66 4.25-4.14 7.2-5.93 0.966-0.593 1.93-1.19 2.93-1.8 0.973-0.583 1.95-1.17 2.95-1.77 0.901-0.541 1.8-1.08 2.73-1.64 1.62-0.973 3.25-1.94 4.88-2.9 1.79-1.1 3.54-2.26 5.27-3.47 8.74-5.57 19-7.63 29.1-8.99v-18c-6.49 0.515-11.9 1.73-18 4-1.23 0.436-2.47 0.871-3.74 1.32-8.91 3.19-17.8 6.55-25.4 12.3-1.87 1.4-1.87 1.4-4.56 2.65-17.7 9.35-32.1 26.4-41.3 43.8h-2c-0.227 1.01-0.454 2.02-0.688 3.06-0.998 3.56-2.78 5.87-5.02 8.8-2.22 3.67-3.17 7.72-4.32 11.8-0.858 2.93-1.88 5.67-3.03 8.5-2.19 5.81-3.08 11.8-3.99 17.9-0.865 5.84-0.865 5.84-1.95 6.93-0.358 1.95-0.66 3.9-0.938 5.86l-0.523 3.63c-0.178 1.26-0.356 2.52-0.539 3.82-0.352 2.48-0.706 4.95-1.06 7.43-0.156 1.1-0.312 2.21-0.473 3.34-0.376 2.36-0.833 4.62-1.46 6.92-2.44-0.372-3.68-0.62-5.31-2.53-0.373-0.65-0.745-1.3-1.13-1.97-0.42-0.723-0.84-1.45-1.27-2.19-0.638-1.14-0.638-1.14-1.29-2.31-0.425-0.731-0.851-1.46-1.29-2.21-2.55-4.45-4.72-8.95-6.74-13.7-0.92-2-1.96-3.81-3.13-5.68-2.09-3.9-2.8-7.18-3.41-11.5-0.757-5.16-2.01-9.29-4.44-13.9-1.63-6.25-1.26-12.8-1.3-19.2-0.0114-1.53-0.0318-3.05-0.0615-4.58-0.176-9.05 0.255-16.8 3.37-25.4 1.01-2.85 1.65-5.65 2.24-8.61 2.52-10.5 8.41-19.9 13.8-29.2h2c0.232-0.704 0.464-1.41 0.703-2.13 1.82-4.03 4.56-7.02 7.43-10.3 2.77-3.22 2.77-3.22 5.37-6.58 3.96-5.37 9.59-8.08 15.4-11.1 2.59-1.48 4.23-2.6 6.14-4.8 3.31-2.93 6.64-4.89 10.6-6.8 5.83-2.95 11.4-6.38 17-9.82 2.13-1.23 4.07-2.09 6.39-2.88 3.28-1.18 6.03-2.67 9-4.5 1.64-0.723 3.29-1.44 4.94-2.13 8.56-3.61 16.9-7.72 25.2-11.9 3.96-2 7.94-3.98 11.9-5.96 3.29-1.64 6.58-3.29 9.86-4.95 0.621-0.313 1.24-0.625 1.88-0.947 1.69-0.85 3.37-1.7 5.06-2.55 6.44-3.12 13.1-5.75 19.7-8.46 2.37-0.862 2.37-0.862 3.48-2.09zm-32 101 1 2zm-96 107 1 2zm-5 31 1 3z" fill="#FCFCFC"/>
<path transform="translate(669 26.9)" d="m0 0c4.42 1.72 8.36 3.71 12.4 6.14 1.55 0.644 3.12 1.27 4.69 1.88 5.28 2.06 10.3 4.53 15.3 7.12 5.8 2.95 11.7 5.77 17.6 8.5 4.83 2.23 9.55 4.58 14.2 7.23 4.67 2.6 9.48 4.91 14.3 7.27v2c0.784 0.309 1.57 0.619 2.38 0.938 2.62 1.06 2.62 1.06 4.62 2.06v2c1.32 0.66 2.64 1.32 4 2 0.694 4.44-0.985 6.73-3.39 10.3-2.5 4.13-4.43 8.51-6.45 12.9-2.05 4.44-4.19 8.82-6.43 13.2-3.29 6.4-5.98 12.6-7.74 19.6-0.33 0.969-0.66 1.94-1 2.94-0.33 1.01-0.66 2.02-1 3.06-0.245 0.732-0.49 1.46-0.743 2.22-2.34 7.64-2.68 14.7-2.57 22.7-0.00483 1.77-0.00483 1.77-0.00977 3.57 0.0672 11.1 1.61 21.5 4.66 32.2 1.56 5.54 1.76 10.6 1.66 16.4-16.6 1.37-34.9-6.81-49-15-1.02-0.983-2.02-1.98-3-3-1.68-1.14-3.37-2.26-5.06-3.38-6.8-4.89-11.2-10.8-15.9-17.6-0.553-0.75-1.11-1.5-1.68-2.27-5-7.03-8.67-14.9-12.3-22.7-0.366-0.779-0.732-1.56-1.11-2.36-2.73-8.08-3.2-16.1-3.19-24.6-0.0056-1.12-0.0112-2.25-0.017-3.4-0.0119-3.62-0.00567-7.24 0.00525-10.9 0.00182-1.23 0.00365-2.47 0.00552-3.74 0.162-64.9 0.162-64.9 12.3-78.1 3.93-1.96 8.58-0.473 12.6 0.855zm-19.6 16.1 1 2zm-1 5 1 2zm-3 84 1 2z" fill="#FDFDFD"/>
<path transform="translate(770,1095)" d="m0 0c6.08 4.99 11.6 10.5 17.1 16 1.67 1.69 3.35 3.37 5.03 5.06 3.56 3.57 7.11 7.14 10.7 10.7 4.13 4.16 8.27 8.31 12.4 12.5 1.65 1.66 3.3 3.32 4.96 4.99 1.01 1.01 2.02 2.02 3.03 3.04 0.88 0.886 1.76 1.77 2.67 2.68 1.96 2.05 1.96 2.05 4.13 3.02v2h2c1.62 2 1.62 2 3 4 3.59-1.33 6.75-2.96 10-5-1.49 3.79-3.59 5.81-7 8-3.8-0.301-5.58-2.24-8.15-4.89-0.777-0.791-1.55-1.58-2.35-2.4-1.2-1.25-1.2-1.25-2.43-2.52-1.59-1.63-3.18-3.27-4.78-4.89-0.702-0.727-1.4-1.45-2.13-2.2-2.16-2.16-2.16-2.16-4.72-4.12-2.22-1.79-3.94-3.54-5.76-5.71-3.69-4.31-7.6-8.32-11.6-12.3-0.665-0.668-1.33-1.34-2.01-2.03-3.97-3.97-8.05-7.7-12.4-11.3-1.78-1.76-2.59-3.41-3.66-5.64-0.619-0.309-1.24-0.619-1.88-0.938-2.9-1.45-4.29-3.44-6.12-6.06v-2z" fill="#000002"/>
<path transform="translate(730,1053)" d="m0 0c5.01 4.21 9.75 8.58 14.4 13.2 0.673 0.668 1.35 1.34 2.04 2.02 1.41 1.4 2.82 2.8 4.23 4.21 2.15 2.14 4.32 4.28 6.48 6.41 1.38 1.37 2.75 2.74 4.12 4.11 0.646 0.633 1.29 1.27 1.96 1.92 3.16 3.18 5.53 5.71 6.77 10.1-1.11-0.936-2.21-1.87-3.31-2.81-0.615-0.522-1.23-1.04-1.86-1.58-3.34-2.94-3.34-2.94-4.82-4.61v-2c-0.557-0.227-1.11-0.454-1.69-0.688-4.38-2.48-7.4-6.4-10.6-10.2-2.42-2.81-4.92-5.29-7.75-7.69-3.69-3.13-7.16-6.45-9.94-10.4v-2z" fill="#000002"/>
<path transform="translate(637,955)" d="m0 0c4.69 3.84 9.07 7.93 13.4 12.2 0.536 0.523 1.07 1.05 1.62 1.58 2.4 2.39 3.92 3.97 5 7.23-3.4-1.46-5.47-3.32-8-6l-2.25-2.25c-3.58-3.58-7.17-7.17-10.8-10.8 0.33-0.66 0.66-1.32 1-2z" fill="#000002"/>
<path transform="translate(881,1115)" d="m0 0c0 4.08-1.26 4.99-4 8-1.83 1.64-3.69 3.23-5.56 4.82-5.03 4.5-9.7 9.38-14.4 14.2 0-3 0-3 2.2-5.54 1.01-1.01 2.02-2.01 3.05-3 0.533-0.528 1.07-1.06 1.61-1.6 1.71-1.69 3.42-3.37 5.14-5.04 1.16-1.14 2.31-2.28 3.47-3.43 2.84-2.8 5.68-5.6 8.53-8.38z" fill="#000002"/>
<path transform="translate(962,1030)" d="m0 0c0.66 0.33 1.32 0.66 2 1-4.33 5.18-8.77 9.73-14 14-0.66-0.33-1.32-0.66-2-1 4.62-4.62 9.24-9.24 14-14z" fill="#000002"/>
<path transform="translate(1047,938)" d="m0 0c0.33 0.66 0.66 1.32 1 2-8.21 9.53-8.21 9.53-12 13h-2c1.61-4.07 4.54-6.77 7.62-9.75 0.516-0.507 1.03-1.01 1.56-1.54 1.27-1.24 2.54-2.48 3.81-3.71z" fill="#000002"/>
<path transform="translate(976,1016)" d="m0 0v3h-2c-0.227 0.722-0.454 1.44-0.688 2.19-1.58 3.39-3.51 5.35-6.31 7.81-0.99 0.33-1.98 0.66-3 1 1.42-3.15 3.15-5.54 5.44-8.12 0.597-0.683 1.19-1.37 1.81-2.07 1.75-1.8 1.75-1.8 4.75-3.8z" fill="#000002"/>
<path transform="translate(989 1e3)" d="m0 0c0 3 0 3-2 6h-2c-0.206 0.557-0.413 1.11-0.625 1.69-1.93 3.24-4.41 4.99-7.38 7.31 1.62-3.9 4.28-6.71 7.12-9.75 0.468-0.507 0.936-1.01 1.42-1.54 1.15-1.24 2.3-2.48 3.46-3.71z" fill="#000002"/>
<path transform="translate(626,943)" d="m0 0c4.56 3.61 8.02 6.99 11 12-0.99-0.33-1.98-0.66-3-1v-2h-2v-2c-0.619-0.227-1.24-0.454-1.88-0.688-2.74-1.69-3.18-3.3-4.12-6.31z" fill="#000002"/>
<path transform="translate(711,566)" d="m0 0c0.66 1.32 1.32 2.64 2 4-0.66-0.33-1.32-0.66-2-1v-3z" fill="#000002"/>
<path transform="translate(1043,293)" d="m0 0 4 1z" fill="#000002"/>
<path transform="translate(1095,292)" d="m0 0 4 1z" fill="#000002"/>
<path transform="translate(736,209)" d="m0 0 1 4z" fill="#000002"/>
<path transform="translate(731,184)" d="m0 0 1 4z" fill="#000002"/>
<path transform="translate(1106,293)" d="m0 0c3 1 3 1 3 1z" fill="#000002"/>
<path transform="translate(893,91)" d="m0 0 2 1z" fill="#000002"/>
</svg>
